<svg width="100%" height="100%" xmlns="http://www.w3.org/2000/svg" viewBox="0 0 1210.4 299.3" enable-background="new 0 0 1210.4 299.3"><path fill="#A81326" d="M.1 298.4v-129.3h71.39999999999999c2.8 0 8.3-.1 14.4-1 5.6-.8 10.8-2.4 14.2-3.7 5.7-2 10.7-4.5 14.6-7.1 5.8-3.9 9.2-7.7 9.3-7.8l.3-.3-.3-.3c-.1-.1-2.4-2.6-7.3-5.8-2.1-1.4-7.8-5-14.9-7.6-6.4-2.4-14.7-4.4-22.8-5.5-7.4-1-13.9-1.1-14-1.1h-64.9v-128.4h87c5.6.1 9.3.2 9.3.2.2 0 24.2.6 46 11.1 16.2 7.8 30.9 22.9 40.2 41.4 8 16 10.3 43.1 5.4 62.9-4.9 19.8-16.7 33.2-16.8 33.3l-.3.3.3.3c.2.2 15.6 16.5 19.2 41.4 4 27.5-2.5 45.5-8.7 58-14.3 29.1-43.2 40.2-51.7 42.9-6.7 2.1-14.5 3.8-21.3 4.7-5.8.7-16.4 1.3-27.1 1.4h-81.5zm37.8-36.1h46.9c4.5 0 20.1-.3 31.9-4.7 10.7-3.9 20.7-11.5 26.7-20.4 7.4-10.8 10.2-26.4 9.6-37-.7-13.2-5.8-22.5-5.9-22.6l-.3-.5-.5.3c-.1 0-5.9 4.5-14.6 9.8-6.5 4-15.3 9.4-27.6 12.5-6.3 1.6-12.2 2.7-18 3.3-4.7.5-9.5.8-14.1 1l-1 .1c-6.3.4-13 .5-19.9.5-7.6 0-12.7-.2-12.8-.2h-.5v57.9h.1zm13.1-168.6c6.8 0 13.4.2 19.6.5l2.1.1c4.3.2 8.8.5 13.1 1 5.8.7 11.7 1.8 18 3.3 12.8 3.2 21.4 8 27.6 11.7 8.6 5.3 14.5 10.5 14.6 10.6l.5.4.3-.5c.1-.1 5.2-9.4 5.9-22.6.4-9.3-1.2-19.4-4.5-27.6-1.2-2.9-2.9-6-5.2-9.4-6-8.8-16-16.4-26.7-20.4-5.1-1.9-11.3-3.4-17.5-4.3-8.3-1.2-15.2-1.2-15.3-1.2h-46v58.7h.5c.1-.1 5.3-.3 13-.3z"></path><path d="M303.3 102.8c-20.7 0-29.4 6.3-32.8 9.3v-45.8h-11.2v138.3h10.8v-6.8c3.8 3.3 12.2 9.4 33.2 9.4 24.5 0 38.5-9.7 38.5-26.7v-51.1c.1-16.9-14-26.6-38.5-26.6zm-32.7 74.8v-45.2c0-14.8 10.5-22 32.2-22 18 0 27.9 6.9 27.9 19.3v50.7c0 12.5-9.9 19.3-27.9 19.3-21.7-.1-32.2-7.3-32.2-22.1zM422.6 103.4c-23.5 0-36.1 11.8-39.6 15.6v-13.6h-10.5v99.3h11.2v-64.9c0-11.7 14.1-27.9 40.6-27.9 1.3 0 3.8.2 4 .2l1 .1v-8.5l-.9-.1c-2.4-.2-3.6-.2-5.8-.2zM486.2 102.8c-27 0-41.9 9.7-41.9 27.2v49.9c0 17.6 14.9 27.2 41.9 27.2 26.6 0 41.3-9.7 41.3-27.2v-6.4h-11.2v6c0 13.2-10.1 19.9-30 19.9-20 0-30.6-6.9-30.6-19.9v-25.2h72.3v-24.3c0-17.5-14.8-27.2-41.8-27.2zm0 7.5c20 0 30.6 6.9 30.6 19.9v16.6h-61.2v-16.6c0-13 10.5-19.9 30.6-19.9zM624.8 177.4c0 14.8-10.3 22-31.6 22-12.5 0-27.5-3.4-27.5-19.3v-74.8h-11.2v75.2c0 16.9 13.9 26.7 38.2 26.7 18.9 0 27.4-4.8 32.6-9.3v6.8h10.7v-99.3h-11.2v72zM709.8 102.8c-18.9 0-27.7 4.9-33.2 9.4v-6.9h-10.8v99.3h11.2v-72.1c0-14.8 10.5-22 32.2-22 18 0 27.9 6.9 27.9 19.3v74.8h11.2v-75.2c.1-16.9-14-26.6-38.5-26.6zM778.4 204.6h11.4v-99.3h-11.4v99.3zM864.8 102.8c-18.9 0-27.7 4.9-33.2 9.4v-6.9h-10.8v99.3h11.2v-72.1c0-14.8 10.5-22 32.2-22 18 0 27.9 6.9 27.9 19.3v74.8h11.2v-75.2c0-16.9-14-26.6-38.5-26.6zM1003.4 112.2c-3.8-3.3-12.2-9.4-33.2-9.4-24.5 0-38.6 9.7-38.6 26.7v51.1c0 16.9 14.1 26.7 38.6 26.7 14.7 0 25.5-3 32.8-9.1v20.5c0 12.8-9.5 19.5-28.1 19.9h-1.9c-26 0-29.1-11.4-29.1-19.9v-2.9h-11.2v3.3c0 17.8 13.9 27.2 40.3 27.2 26.6 0 41.3-9.7 41.3-27.2v-113.8h-10.8v6.9h-.1zm-60.4 68.1v-50.7c0-12.5 9.9-19.3 27.9-19.3 21.7 0 32.2 7.2 32.2 22v45.2c0 14.8-10.5 22-32.2 22-18 .1-27.9-6.7-27.9-19.2zM1083 102.8c-27 0-41.9 9.7-41.9 27.2v49.9c0 17.6 14.9 27.2 41.9 27.2 26.6 0 41.3-9.7 41.3-27.2v-6.4h-11.3v6c0 13.2-10.1 19.9-30 19.9-20 0-30.6-6.9-30.6-19.9v-25.2h72.5v-24.3c-.1-17.5-14.9-27.2-41.9-27.2zm0 7.5c20 0 30.6 6.9 30.6 19.9v16.6h-61.2v-16.6c-.1-13 10.5-19.9 30.6-19.9zM1208.6 103.6c-2.6-.2-3.8-.2-5.9-.2-23 0-35.3 10.9-39.6 15.6v-13.7h-10.4v99.3h11.2v-64.9c0-11.7 14.1-27.9 40.6-27.9 1.3 0 3.8.2 4 .2l1 .1v-8.5h-.9z"></path></svg>